PathFileType	4	(X/Y/Z)	Kaydara																																																																																																																									
DataRate	CameraRate	NumFrames	NumMarkers	Units	OrigDataRate	OrigDataStartFrame	OrigNumFrames																																																																																																																					
30	30	8	41	mm	30	88	144																																																																																																																					
Frame#	Time	EMLA_LFHD			EMLA_RFHD			EMLA_LBHD			EMLA_RBHD			EMLA_LFTShould			EMLA_RFTShould			EMLA_LRRShould			EMLA_RRRShould			EMLA_T10			EMLA_STRN			EMLA_TRUN			EMLA_LSHO			EMLA_LUPA			EMLA_LELB			EMLA_LFRM			EMLA_LWRA			EMLA_LWRB			EMLA_LFIN			EMLA_RSHO			EMLA_RUPA			EMLA_RELB			EMLA_RFRM			EMLA_RWRA			EMLA_RWRB			EMLA_RFIN			EMLA_LFWT			EMLA_RFWT			EMLA_LBWT			EMLA_RBWT			EMLA_LTHI			EMLA_LKNE			EMLA_LSHN			EMLA_LANK			EMLA_LHEE			EMLA_LTOE			EMLA_RTHI			EMLA_RKNE			EMLA_RSHN			EMLA_RANK			EMLA_RHEE			EMLA_RTOE		
		X1	Y1	Z1	X2	Y2	Z2	X3	Y3	Z3	X4	Y4	Z4	X5	Y5	Z5	X6	Y6	Z6	X7	Y7	Z7	X8	Y8	Z8	X9	Y9	Z9	X10	Y10	Z10	X11	Y11	Z11	X12	Y12	Z12	X13	Y13	Z13	X14	Y14	Z14	X15	Y15	Z15	X16	Y16	Z16	X17	Y17	Z17	X18	Y18	Z18	X19	Y19	Z19	X20	Y20	Z20	X21	Y21	Z21	X22	Y22	Z22	X23	Y23	Z23	X24	Y24	Z24	X25	Y25	Z25	X26	Y26	Z26	X27	Y27	Z27	X28	Y28	Z28	X29	Y29	Z29	X30	Y30	Z30	X31	Y31	Z31	X32	Y32	Z32	X33	Y33	Z33	X34	Y34	Z34	X35	Y35	Z35	X36	Y36	Z36	X37	Y37	Z37	X38	Y38	Z38	X39	Y39	Z39	X40	Y40	Z40	X41	Y41	Z41
																																																																																																																												
73	2.9	249.33254	1607.41959	-1025.74562	78.70022	1601.28723	-1018.35098	256.00073	1611.12793	-1176.567	61.38602	1607.40845	-1169.80507	253.3699	1387.05063	-1100.33813	109.38391	1370.08377	-1081.79443	225.27147	1440.91263	-1243.72116	70.86973	1424.72733	-1220.9108	159.50449	1268.12523	-1293.72589	188.26389	1309.83795	-1057.91603	188.53502	1205.24902	-1045.99075	367.66396	1417.85461	-1166.02051	438.26939	1254.92882	-1221.65688	474.41006	1118.22304	-1257.97096	478.21789	977.15042	-1272.65198	404.3013	822.87209	-1199.66469	452.85034	810.70541	-1269.86549	454.58206	771.25488	-1213.02269	-22.59236	1402.9097	-1125.56786	-75.73421	1212.55112	-1092.96364	-97.98948	1066.68655	-1088.8253	-96.26181	963.87726	-1074.79652	-9.82994	830.65903	-946.97258	-64.39113	795.15335	-1006.1319	-67.25255	778.71063	-942.83081	274.91434	964.90753	-1100.20775	41.51879	960.01663	-1117.60132	260.85257	983.94791	-1302.42996	84.02463	1000.78339	-1301.00159	324.40491	691.74484	-1176.83823	331.41655	533.75893	-1033.98888	299.50516	349.19582	-1041.7025	282.83447	189.81884	-1148.42552	204.26212	123.93724	-1211.96518	269.62225	71.13267	-1034.66393	59.43652	710.55237	-1330.61966	40.61036	499.55189	-1278.39676	103.49565	279.28625	-1291.51749	79.84275	124.34251	-1387.75085	139.88132	77.31364	-1445.77682	107.35634	63.01997	-1246.20605
74	2.933	252.30083	1599.55963	-989.48349	81.53402	1594.17374	-980.73082	257.73853	1601.96121	-1140.32494	63.20899	1599.10751	-1132.19841	255.5201	1378.33252	-1063.88046	111.37335	1361.4888	-1042.9213	224.78977	1433.35251	-1205.74783	71.21198	1416.00571	-1181.40038	158.89819	1259.57405	-1255.7402	190.66284	1301.41998	-1019.9659	190.65323	1196.67747	-1007.79037	368.01586	1408.44238	-1132.28218	439.342	1251.52725	-1196.26633	480.11402	1118.41034	-1238.12706	485.33142	976.62506	-1258.11905	412.15115	819.35677	-1190.6559	460.35404	810.28618	-1261.5596	463.14713	769.0461	-1206.19469	-21.1445	1394.61273	-1085.6205	-74.53712	1206.06148	-1045.25375	-97.05713	1060.33577	-1034.18419	-93.45298	958.23929	-1013.77876	-2.39047	835.91606	-878.60657	-56.84159	795.17616	-934.48776	-58.67157	783.26767	-869.91127	274.76158	955.65636	-1060.1088	41.91435	950.77385	-1080.91644	264.46217	975.31158	-1262.65434	87.41514	992.5563	-1263.78052	324.61346	684.86816	-1131.1557	331.49006	531.41655	-982.78648	303.65019	347.12017	-960.01404	290.12804	169.71897	-1032.83119	212.44148	91.54285	-1081.07437	281.56893	75.60255	-897.40074	65.36077	709.94057	-1303.84323	42.30727	496.61312	-1262.85362	104.82237	277.37638	-1284.16306	81.13492	125.91246	-1385.57983	141.67575	79.85597	-1445.01953	107.65111	62.87856	-1246.31836
75	2.967	256.17167	1590.86395	-951.27449	85.38247	1585.84412	-941.85158	260.96989	1591.38977	-1102.10648	66.53932	1588.95096	-1093.28232	258.59749	1367.5618	-1024.85229	113.97317	1351.02158	-1002.3893	225.03788	1423.8588	-1166.36665	72.82762	1406.39404	-1140.19592	159.22165	1250.11818	-1216.34483	193.69783	1290.96344	-980.07301	192.78263	1186.10878	-968.56094	369.24721	1398.74084	-1096.20415	442.58877	1247.3452	-1167.61604	488.12981	1119.2128	-1216.34911	494.41975	977.10976	-1240.73677	420.20763	817.59315	-1179.74991	469.41711	811.01883	-1250.11879	470.36442	767.25098	-1196.65802	-18.69503	1385.70251	-1044.54483	-72.17123	1198.54752	-998.71452	-94.70939	1053.87947	-980.27588	-89.63655	952.76085	-954.52614	4.943	840.0721	-813.38539	-49.07917	795.07698	-866.37383	-50.64942	786.88309	-801.22665	275.14332	944.83337	-1018.55453	43.02877	941.80832	-1042.79907	267.91239	965.30602	-1221.91109	90.8723	983.4182	-1225.12939	323.40183	675.12688	-1087.91626	333.69518	524.81216	-935.01152	306.06527	346.78226	-881.12015	299.80976	158.72667	-918.01834	226.5826	72.05932	-956.71196	282.03741	88.64117	-768.31551	69.21821	709.8716	-1274.56993	43.02847	495.15419	-1246.46889	105.23376	276.78629	-1275.72701	82.58505	129.19133	-1383.27255	143.70567	85.24955	-1443.65662	107.7076	62.69698	-1246.47209
76	3	261.1348	1581.90048	-910.68161	90.48182	1578.26569	-900.83252	265.62815	1580.33249	-1061.67908	71.2794	1579.14886	-1052.2683	262.56479	1357.68951	-984.44962	117.88086	1340.96344	-959.94804	226.98528	1414.56024	-1124.65027	75.57555	1397.45209	-1096.99326	160.78974	1241.15822	-1174.92775	197.4128	1280.77682	-938.61595	196.29147	1176.12106	-927.47147	371.5134	1390.34027	-1057.79625	446.38954	1245.94681	-1137.24106	495.67284	1121.43738	-1191.35803	503.8369	979.49463	-1220.40421	429.96593	817.19803	-1165.31418	480.02625	813.49083	-1235.27504	479.38362	767.25189	-1183.85132	-14.73661	1376.71661	-1000.89012	-68.31566	1191.03958	-951.54846	-91.4619	1047.24037	-928.21678	-85.10617	947.01035	-897.54761	11.43582	843.16635	-750.718	-41.549	794.34242	-801.52733	-43.17578	789.42184	-736.37787	275.82718	934.62296	-975.17838	44.43114	933.4211	-1002.91367	272.12933	954.70474	-1178.89023	95.35769	974.73167	-1184.55177	325.26421	664.10156	-1045.12405	334.57806	515.88936	-889.58206	307.80354	348.16353	-809.46243	309.72937	157.16507	-814.42917	244.5927	61.9511	-845.99403	274.16208	109.57847	-656.96091	72.60561	710.84068	-1242.67555	43.82943	494.82792	-1225.66612	105.68757	277.75366	-1264.67529	83.30274	135.33826	-1379.24286	144.75569	93.89853	-1440.98923	107.87265	62.5131	-1246.24512
77	3.033	267.74288	1574.45465	-868.08044	96.82208	1572.08725	-858.27965	271.67591	1571.03241	-1018.94691	77.38825	1571.492	-1009.04716	268.19952	1349.82849	-940.56511	123.02688	1332.61719	-915.62927	230.4431	1406.6124	-1080.53062	79.6546	1389.99023	-1051.60446	164.06532	1233.72948	-1130.97679	202.37259	1272.38403	-895.39368	200.97334	1167.94815	-883.6174	375.4657	1383.53653	-1015.63156	451.69662	1243.86436	-1100.74135	502.55791	1123.38402	-1159.77623	512.67212	982.74147	-1195.11826	441.99978	817.02744	-1146.68144	491.20754	817.27547	-1217.24045	491.52527	768.5128	-1168.22586	-9.45295	1368.73291	-954.97116	-63.55278	1183.7059	-903.72536	-87.62602	1040.91019	-878.02719	-80.16671	941.69678	-843.23647	17.15662	845.03319	-692.01553	-34.82619	793.31734	-741.47118	-36.84025	791.02562	-675.96146	277.24001	927.78061	-929.74701	47.07079	926.34247	-960.31914	278.05742	946.11359	-1133.11218	101.5397	967.95403	-1141.26526	328.96351	654.94331	-998.90938	334.21761	508.7878	-842.74872	308.46451	350.45261	-747.02705	319.16056	160.39444	-732.81891	259.8427	59.30691	-758.38341	275.06985	126.98353	-573.46504	76.45308	711.38138	-1205.27794	43.87177	495.30525	-1198.7471	104.7485	279.93717	-1249.6022	81.15383	144.27499	-1372.36786	141.96199	107.00187	-1436.4415	107.50409	62.23608	-1245.32356
78	3.067	275.18024	1569.88663	-823.11493	104.36169	1568.54858	-813.15948	278.93068	1564.7345	-973.94142	84.6642	1566.42059	-964.17656	274.68103	1344.81232	-893.57597	129.70961	1327.07306	-868.49869	235.92333	1401.40564	-1033.34625	85.46294	1384.87839	-1004.15092	169.33836	1228.67943	-1083.85277	208.67136	1267.07123	-848.24928	207.04939	1162.55478	-836.76109	381.23077	1378.88779	-969.73198	457.46136	1242.17606	-1058.405	507.95208	1124.28055	-1121.25572	520.89634	986.23489	-1163.43132	454.95182	816.61209	-1122.58781	503.52329	821.68167	-1193.84483	505.48706	770.59471	-1147.68356	-2.729	1363.26004	-907.79549	-57.14922	1178.85681	-855.64781	-82.62433	1036.65733	-828.68759	-75.04376	937.92694	-791.98418	21.73789	845.47852	-637.91523	-29.11726	791.93138	-686.71883	-32.00231	791.37535	-621.23299	279.96202	924.02626	-880.81184	50.43721	920.96664	-913.65845	284.13008	941.39793	-1083.71452	107.97079	962.7491	-1093.35129	333.2164	651.15326	-948.28682	337.39323	504.21677	-793.55423	312.92316	347.57084	-696.68282	321.31298	157.62398	-678.9296	258.72656	56.6712	-700.13664	284.8365	128.39039	-517.27047	80.98974	712.48894	-1161.47987	44.31967	496.86443	-1164.18274	103.36924	284.23096	-1229.0419	77.76208	157.2872	-1360.6105	137.81306	125.79729	-1427.65869	106.95307	61.80034	-1243.07823
79	3.1	283.14926	1568.64777	-775.8934	112.30039	1567.36298	-766.23352	287.20356	1561.21765	-926.72287	92.85032	1562.9837	-917.37778	282.46105	1341.80862	-843.92258	137.16393	1324.59244	-819.02481	243.1459	1397.76321	-983.8633	92.9635	1382.16278	-954.80217	175.83431	1225.31021	-1033.40576	216.10336	1264.55917	-798.3979	213.97469	1160.15823	-786.3308	388.64658	1376.42731	-920.62073	463.58067	1239.93881	-1011.76445	511.85596	1123.07091	-1076.7627	527.924	988.49167	-1124.36462	467.47711	814.52332	-1093.27637	516.32782	825.46951	-1163.46298	519.80877	771.69052	-1120.40794	5.14671	1361.01288	-858.23921	-50.48221	1176.78261	-807.31934	-77.20761	1034.8793	-780.91866	-70.1026	935.90096	-744.24454	25.00553	844.14284	-588.81824	-24.97783	790.13206	-637.96253	-28.84337	789.92943	-572.58015	285.0441	921.54007	-827.59102	55.19654	916.59653	-861.40419	290.60919	940.45578	-1030.2224	114.57402	958.91556	-1040.08812	339.56108	650.85793	-895.00496	343.24409	500.06683	-744.96155	317.99616	336.79108	-655.80833	319.91308	145.86893	-649.58084	253.59848	48.12416	-673.28079	290.27771	110.55119	-488.99345	87.07503	713.02673	-1111.53305	45.06083	498.46004	-1121.36658	102.03812	289.34772	-1201.44821	74.48766	173.39249	-1342.72369	133.63449	149.38345	-1412.12616	106.74326	61.16563	-1239.05457
80	3.133	291.35805	1570.46799	-726.96823	120.47324	1568.67599	-718.12325	296.12877	1560.7132	-877.57599	101.73269	1561.75919	-869.30038	291.7367	1341.22604	-792.3748	145.743	1324.75006	-767.20688	252.49813	1395.7222	-933.15384	102.00061	1382.04132	-905.15488	183.72887	1222.9995	-981.18179	224.62309	1264.85809	-746.31355	221.88259	1160.74799	-732.62619	397.99633	1374.57275	-869.70131	469.90673	1236.30219	-960.8696	514.86027	1118.59581	-1026.61148	533.4404	988.02254	-1078.30009	479.18678	810.59647	-1056.41808	527.98481	827.45796	-1125.60173	533.00236	771.33255	-1085.80521	14.1284	1361.28006	-807.81776	-42.95943	1176.92917	-758.91342	-71.68712	1034.65752	-734.97536	-65.71656	935.15091	-700.20866	26.86185	840.36263	-545.21805	-22.97414	787.67212	-595.70831	-27.32309	786.2883	-530.28934	290.38887	924.63394	-773.19649	61.1305	912.86522	-806.12236	298.83276	942.34604	-975.83122	120.72631	957.05276	-985.09392	345.42465	651.92749	-843.18489	348.84884	499.23313	-697.80144	320.2977	332.77592	-616.17844	320.70457	142.65891	-625.20008	252.52415	56.22248	-660.28488	293.04867	78.13201	-467.08435	95.01228	709.43314	-1055.02831	46.42623	496.24348	-1067.44743	101.06793	292.94653	-1164.29169	71.80939	191.02053	-1315.97275	130.5728	175.7324	-1386.08353	107.55827	59.85311	-1232.631
